<?xml version="1.0" encoding="utf-8"?>
<!-- Generator: Adobe Illustrator 16.0.0, SVG Export Plug-In . SVG Version: 6.00 Build 0)  -->
<!DOCTYPE svg PUBLIC "-//W3C//DTD SVG 1.1//EN" "http://www.w3.org/Graphics/SVG/1.1/DTD/svg11.dtd">
<svg version="1.1" id="Layer_1" xmlns="http://www.w3.org/2000/svg" xmlns:xlink="http://www.w3.org/1999/xlink" x="0px" y="0px"
	 width="48px" height="48px" viewBox="0 0 48 48" enable-background="new 0 0 48 48" xml:space="preserve">
<path fill="#888888" d="M17.999,27c1.659,0,3,1.341,3,3v9c0,1.212-0.731,2.311-1.851,2.771C18.775,41.925,18.387,42,17.999,42
	c-0.78,0-1.548-0.307-2.121-0.879l-2.379-2.379L5.12,47.121c-1.173,1.173-3.069,1.173-4.242,0s-1.173-3.069,0-4.242L9.257,34.5
	l-2.379-2.379c-0.858-0.857-1.113-2.148-0.651-3.27C6.689,27.732,7.787,27,8.999,27H17.999z M29.999,21c-1.659,0-3-1.341-3-3V9
	c0-1.212,0.732-2.31,1.852-2.772C29.222,6.075,29.612,6,29.999,6c0.779,0,1.548,0.306,2.121,0.879l2.379,2.379l8.379-8.379
	c1.173-1.173,3.069-1.173,4.242,0s1.173,3.069,0,4.242L38.741,13.5l2.379,2.379c0.857,0.858,1.113,2.148,0.65,3.27
	C41.31,20.268,40.211,21,38.999,21H29.999z M19.148,6.228C20.268,6.69,20.999,7.788,20.999,9v9c0,1.659-1.341,3-3,3h-9
	c-1.212,0-2.31-0.732-2.772-1.851c-0.462-1.122-0.207-2.412,0.651-3.27L9.257,13.5L0.878,5.121c-1.173-1.173-1.173-3.069,0-4.242
	s3.069-1.173,4.242,0l8.379,8.379l2.379-2.379C16.451,6.306,17.219,6,17.999,6C18.387,6,18.775,6.075,19.148,6.228z M38.741,34.5
	l8.379,8.379c1.173,1.173,1.173,3.069,0,4.242s-3.069,1.173-4.242,0l-8.379-8.379l-2.379,2.379C31.547,41.693,30.778,42,29.999,42
	c-0.387,0-0.777-0.075-1.148-0.229c-1.119-0.461-1.852-1.56-1.852-2.771v-9c0-1.659,1.341-3,3-3h9c1.212,0,2.311,0.732,2.771,1.852
	c0.463,1.121,0.207,2.412-0.65,3.27L38.741,34.5z"/>
</svg>
